<mxfile host="app.diagrams.net" modified="2024-06-02T16:11:56.610Z" agent="Mozilla/5.0 (Windows NT 10.0; Win64; x64) AppleWebKit/537.36 (KHTML, like Gecko) Chrome/125.0.0.0 Safari/537.36" etag="fzmJSgRc08zl4E2Xww31" version="24.4.13" type="device">
  <diagram id="C5RBs43oDa-KdzZeNtuy" name="Page-1">
    <mxGraphModel dx="819" dy="426" grid="1" gridSize="10" guides="1" tooltips="1" connect="1" arrows="1" fold="1" page="1" pageScale="1" pageWidth="827" pageHeight="1169" math="0" shadow="0">
      <root>
        <mxCell id="WIyWlLk6GJQsqaUBKTNV-0" />
        <mxCell id="WIyWlLk6GJQsqaUBKTNV-1" parent="WIyWlLk6GJQsqaUBKTNV-0" />
        <mxCell id="cXkwyppV9C52TBy3PuzA-0" value="MainWindow" style="swimlane;fontStyle=1;align=center;verticalAlign=top;childLayout=stackLayout;horizontal=1;startSize=26;horizontalStack=0;resizeParent=1;resizeParentMax=0;resizeLast=0;collapsible=1;marginBottom=0;whiteSpace=wrap;html=1;" vertex="1" parent="WIyWlLk6GJQsqaUBKTNV-1">
          <mxGeometry x="334" y="70" width="210" height="170" as="geometry" />
        </mxCell>
        <mxCell id="cXkwyppV9C52TBy3PuzA-1" value="+ threads: int&lt;div&gt;&lt;div&gt;&lt;br&gt;&lt;/div&gt;&lt;/div&gt;" style="text;strokeColor=none;fillColor=none;align=left;verticalAlign=top;spacingLeft=4;spacingRight=4;overflow=hidden;rotatable=0;points=[[0,0.5],[1,0.5]];portConstraint=eastwest;whiteSpace=wrap;html=1;" vertex="1" parent="cXkwyppV9C52TBy3PuzA-0">
          <mxGeometry y="26" width="210" height="34" as="geometry" />
        </mxCell>
        <mxCell id="cXkwyppV9C52TBy3PuzA-2" value="" style="line;strokeWidth=1;fillColor=none;align=left;verticalAlign=middle;spacingTop=-1;spacingLeft=3;spacingRight=3;rotatable=0;labelPosition=right;points=[];portConstraint=eastwest;strokeColor=inherit;" vertex="1" parent="cXkwyppV9C52TBy3PuzA-0">
          <mxGeometry y="60" width="210" height="8" as="geometry" />
        </mxCell>
        <mxCell id="cXkwyppV9C52TBy3PuzA-3" value="&lt;div&gt;+MainWindow()&lt;/div&gt;- Encrypt_Click(): void&lt;div&gt;- button_1t_Checked(): void&lt;/div&gt;&lt;div&gt;- button_2t_Checked(): void&lt;br&gt;&lt;/div&gt;&lt;div&gt;- button_3t_Checked(): void&lt;br&gt;&lt;/div&gt;&lt;div&gt;- Decrypt_Click(): void&lt;/div&gt;&lt;div&gt;&lt;br&gt;&lt;/div&gt;" style="text;strokeColor=none;fillColor=none;align=left;verticalAlign=top;spacingLeft=4;spacingRight=4;overflow=hidden;rotatable=0;points=[[0,0.5],[1,0.5]];portConstraint=eastwest;whiteSpace=wrap;html=1;" vertex="1" parent="cXkwyppV9C52TBy3PuzA-0">
          <mxGeometry y="68" width="210" height="102" as="geometry" />
        </mxCell>
        <mxCell id="cXkwyppV9C52TBy3PuzA-8" value="Uzkodavimas" style="swimlane;fontStyle=1;align=center;verticalAlign=top;childLayout=stackLayout;horizontal=1;startSize=26;horizontalStack=0;resizeParent=1;resizeParentMax=0;resizeLast=0;collapsible=1;marginBottom=0;whiteSpace=wrap;html=1;" vertex="1" parent="WIyWlLk6GJQsqaUBKTNV-1">
          <mxGeometry x="90" y="210" width="170" height="120" as="geometry" />
        </mxCell>
        <mxCell id="cXkwyppV9C52TBy3PuzA-9" value="+ Slapt: string&lt;div&gt;+ Hash: string&lt;/div&gt;" style="text;strokeColor=none;fillColor=none;align=left;verticalAlign=top;spacingLeft=4;spacingRight=4;overflow=hidden;rotatable=0;points=[[0,0.5],[1,0.5]];portConstraint=eastwest;whiteSpace=wrap;html=1;" vertex="1" parent="cXkwyppV9C52TBy3PuzA-8">
          <mxGeometry y="26" width="170" height="44" as="geometry" />
        </mxCell>
        <mxCell id="cXkwyppV9C52TBy3PuzA-10" value="" style="line;strokeWidth=1;fillColor=none;align=left;verticalAlign=middle;spacingTop=-1;spacingLeft=3;spacingRight=3;rotatable=0;labelPosition=right;points=[];portConstraint=eastwest;strokeColor=inherit;" vertex="1" parent="cXkwyppV9C52TBy3PuzA-8">
          <mxGeometry y="70" width="170" height="8" as="geometry" />
        </mxCell>
        <mxCell id="cXkwyppV9C52TBy3PuzA-11" value="+ HashPassword():string&lt;div&gt;+ Isvedimas(): void&lt;/div&gt;" style="text;strokeColor=none;fillColor=none;align=left;verticalAlign=top;spacingLeft=4;spacingRight=4;overflow=hidden;rotatable=0;points=[[0,0.5],[1,0.5]];portConstraint=eastwest;whiteSpace=wrap;html=1;" vertex="1" parent="cXkwyppV9C52TBy3PuzA-8">
          <mxGeometry y="78" width="170" height="42" as="geometry" />
        </mxCell>
        <mxCell id="cXkwyppV9C52TBy3PuzA-14" style="edgeStyle=orthogonalEdgeStyle;rounded=0;orthogonalLoop=1;jettySize=auto;html=1;entryX=1;entryY=0.5;entryDx=0;entryDy=0;endArrow=none;endFill=0;" edge="1" parent="WIyWlLk6GJQsqaUBKTNV-1" source="cXkwyppV9C52TBy3PuzA-3" target="cXkwyppV9C52TBy3PuzA-9">
          <mxGeometry relative="1" as="geometry" />
        </mxCell>
        <mxCell id="cXkwyppV9C52TBy3PuzA-15" value="Atkodavimas" style="swimlane;fontStyle=1;align=center;verticalAlign=top;childLayout=stackLayout;horizontal=1;startSize=26;horizontalStack=0;resizeParent=1;resizeParentMax=0;resizeLast=0;collapsible=1;marginBottom=0;whiteSpace=wrap;html=1;" vertex="1" parent="WIyWlLk6GJQsqaUBKTNV-1">
          <mxGeometry x="590" y="200" width="160" height="240" as="geometry" />
        </mxCell>
        <mxCell id="cXkwyppV9C52TBy3PuzA-16" value="+ threadcount: int&lt;div&gt;+ hashed: string&lt;/div&gt;&lt;div&gt;+ salt: string&lt;/div&gt;&lt;div&gt;&lt;u&gt;- Simboliai: char[]&lt;/u&gt;&lt;/div&gt;&lt;div&gt;+ rastas: bool&lt;/div&gt;&lt;div&gt;&lt;u&gt;- lockObj: object&lt;/u&gt;&lt;/div&gt;&lt;div&gt;&lt;u&gt;- stopwatch: Stopwatch&lt;/u&gt;&lt;/div&gt;" style="text;strokeColor=none;fillColor=none;align=left;verticalAlign=top;spacingLeft=4;spacingRight=4;overflow=hidden;rotatable=0;points=[[0,0.5],[1,0.5]];portConstraint=eastwest;whiteSpace=wrap;html=1;" vertex="1" parent="cXkwyppV9C52TBy3PuzA-15">
          <mxGeometry y="26" width="160" height="104" as="geometry" />
        </mxCell>
        <mxCell id="cXkwyppV9C52TBy3PuzA-17" value="" style="line;strokeWidth=1;fillColor=none;align=left;verticalAlign=middle;spacingTop=-1;spacingLeft=3;spacingRight=3;rotatable=0;labelPosition=right;points=[];portConstraint=eastwest;strokeColor=inherit;" vertex="1" parent="cXkwyppV9C52TBy3PuzA-15">
          <mxGeometry y="130" width="160" height="8" as="geometry" />
        </mxCell>
        <mxCell id="cXkwyppV9C52TBy3PuzA-18" value="+ Atkodavimas()&lt;div&gt;+ Main(): void&lt;/div&gt;&lt;div&gt;+ BruteForce(): void&lt;/div&gt;&lt;div&gt;+ Generavimas(): string&lt;/div&gt;&lt;div&gt;+ Tikrinimas(): bool&lt;/div&gt;" style="text;strokeColor=none;fillColor=none;align=left;verticalAlign=top;spacingLeft=4;spacingRight=4;overflow=hidden;rotatable=0;points=[[0,0.5],[1,0.5]];portConstraint=eastwest;whiteSpace=wrap;html=1;" vertex="1" parent="cXkwyppV9C52TBy3PuzA-15">
          <mxGeometry y="138" width="160" height="102" as="geometry" />
        </mxCell>
        <mxCell id="cXkwyppV9C52TBy3PuzA-20" style="edgeStyle=orthogonalEdgeStyle;rounded=0;orthogonalLoop=1;jettySize=auto;html=1;entryX=0.001;entryY=0.709;entryDx=0;entryDy=0;entryPerimeter=0;endArrow=none;endFill=0;" edge="1" parent="WIyWlLk6GJQsqaUBKTNV-1" source="cXkwyppV9C52TBy3PuzA-3" target="cXkwyppV9C52TBy3PuzA-16">
          <mxGeometry relative="1" as="geometry" />
        </mxCell>
      </root>
    </mxGraphModel>
  </diagram>
</mxfile>
